<?xml version="1.0" encoding="iso-8859-1"?>
<!-- Generator: Adobe Illustrator 19.0.0, SVG Export Plug-In . SVG Version: 6.00 Build 0)  -->
<svg version="1.1" id="Layer_1" xmlns="http://www.w3.org/2000/svg" xmlns:xlink="http://www.w3.org/1999/xlink" x="0px" y="0px"
	 viewBox="0 0 512 512" style="enable-background:new 0 0 512 512;" xml:space="preserve">
<path style="fill:#EA3F31;" d="M356.442,207.636l-21.752-94.287C319.713,48.499,261.48,0,192.141,0l77.07,286.945h24.205
	c35.739,0,64.703-28.965,64.703-64.703C358.119,217.212,357.522,212.328,356.442,207.636z"/>
<path style="fill:#F16C60;" d="M317.181,207.636c0.821,4.692,1.272,9.576,1.272,14.606c0,35.739-22.044,64.703-49.242,64.703H90.866
	c-35.739,0-64.703-28.965-64.703-64.703c0-5.03,0.596-9.914,1.677-14.606l21.752-94.287C64.568,48.499,122.801,0,192.141,0
	c52.775,0,97.077,48.499,108.476,113.349L317.181,207.636z"/>
<path style="fill:#FFC5BF;" d="M251.814,50.874c-3.353,2.667-6.774,5.266-10.251,7.776l-49.422,228.296
	c62.149,0,112.527-50.379,112.527-112.527v-28.132C304.668,106.068,283.558,70.769,251.814,50.874z"/>
<path style="fill:#FFD8D4;" d="M270.91,146.286v28.132c0,62.149-35.266,112.527-78.769,112.527
	c-62.149,0-112.527-50.379-112.527-112.527v-28.132c0-11.793,1.812-23.169,5.176-33.848c58.458-2.037,112.426-21.684,156.773-53.788
	C259.455,79.276,270.91,110.873,270.91,146.286z"/>
<g>
	<path style="fill:#81433D;" d="M162.321,160.352c-3.675,0-6.801-2.348-7.959-5.626h-14.546c-4.662,0-8.44-3.779-8.44-8.44
		s3.778-8.44,8.44-8.44h22.506c4.662,0,8.44,3.779,8.44,8.44v5.626C170.76,156.573,166.983,160.352,162.321,160.352z"/>
	<path style="fill:#81433D;" d="M221.96,160.352c-4.662,0-8.44-3.779-8.44-8.44v-5.626c0-4.661,3.778-8.44,8.44-8.44h22.505
		c4.662,0,8.44,3.779,8.44,8.44s-3.778,8.44-8.44,8.44H229.92C228.762,158.003,225.636,160.352,221.96,160.352z"/>
</g>
<path style="fill:#EA3F31;" d="M192.141,218.466c-11.883,0-22.539-7.521-26.518-18.717c-1.562-4.392,0.733-9.217,5.126-10.779
	c4.387-1.56,9.217,0.734,10.778,5.126c1.593,4.481,5.859,7.491,10.616,7.491s9.022-3.01,10.616-7.491
	c1.562-4.392,6.39-6.685,10.778-5.126c4.392,1.562,6.686,6.387,5.126,10.779C214.68,210.945,204.024,218.466,192.141,218.466z"/>
<path style="fill:#708320;" d="M308.55,360.2h-31.496L349.679,512h22.202l11.557-11.253
	C383.437,438.902,354.09,395.163,308.55,360.2z"/>
<path style="fill:#8A9D29;" d="M299.559,372.061L75.731,360.2C30.191,395.163,0.844,450.155,0.844,512h348.835
	C349.679,456.76,330.392,406.978,299.559,372.061z"/>
<path style="fill:#3C4F0D;" d="M280.103,342.084h-27.806v29.977h47.262c3.196-3.792,6.2-7.742,8.991-11.86
	C299.649,353.359,290.141,347.294,280.103,342.084z"/>
<path style="fill:#566916;" d="M274.781,349.116l-170.603-7.033c-10.037,5.21-19.546,11.275-28.447,18.117
	c25.33,37.258,68.057,61.778,116.41,61.778c43.019,0,81.582-19.411,107.419-49.917C291.964,363.464,283.671,355.767,274.781,349.116
	z"/>
<path style="fill:#FFC5BF;" d="M194.177,320.715l80.603,28.402c1.879-2.273,3.646-4.614,5.323-7.033
	C254.335,328.715,225.134,321.041,194.177,320.715z"/>
<path style="fill:#FFD8D4;" d="M194.177,320.715c29.538,0.461,57.119,10.791,80.603,28.402
	c-19.591,23.867-49.332,39.103-82.64,39.103c-36.47,0-68.676-18.263-87.963-46.136c26.331-13.661,56.252-21.38,87.963-21.38
	C192.816,320.703,193.502,320.703,194.177,320.715z"/>
<g>
	<circle style="fill:#708320;" cx="101.05" cy="469.802" r="8.44"/>
	<circle style="fill:#708320;" cx="67.294" cy="436.044" r="8.44"/>
</g>
<path style="fill:#E4D1F3;" d="M371.881,230.693v281.296c77.048-0.731,139.275-63.42,139.275-140.648
	S448.928,231.424,371.881,230.693z"/>
<path style="fill:#F1E8F9;" d="M371.881,230.693c58.402,0.979,105.517,63.567,105.517,140.648S430.283,511.01,371.881,511.989
	C371.419,512,370.958,512,370.497,512c-77.689,0-140.659-62.97-140.659-140.659c0-27.682,8.001-53.484,21.808-75.247l-21.808-65.412
	l65.412,21.808c21.763-13.807,47.565-21.808,75.247-21.808C370.958,230.681,371.419,230.681,371.881,230.693z"/>
<g>
	<circle style="fill:#81433D;" cx="336.738" cy="371.341" r="8.44"/>
	<circle style="fill:#81433D;" cx="370.497" cy="371.341" r="8.44"/>
	<circle style="fill:#81433D;" cx="404.255" cy="371.341" r="8.44"/>
</g>
<g>
</g>
<g>
</g>
<g>
</g>
<g>
</g>
<g>
</g>
<g>
</g>
<g>
</g>
<g>
</g>
<g>
</g>
<g>
</g>
<g>
</g>
<g>
</g>
<g>
</g>
<g>
</g>
<g>
</g>
</svg>
